<svg xmlns="http://www.w3.org/2000/svg" id="Wordmark" viewBox="0 0 512 512"><g id="_01-wordmark-logo-color" data-name="01-wordmark-logo-color"><path id="sync" d="m426.54 140.17-49.1 1.03-30.95 92.66-38.63-90.2c-4.45-1.36-8.42-2.87-12.94-2.87l-46.36-.48c1.44 6.64 5.68 10.2 6.16 16.71-36.09-19.79-77.04-29.04-116.55-19.45-21.51 5.2-35.82 21.78-36.98 43.28-1.65 30.41 6.16 59.17 38.28 68.07 18.15 5 36.57 6.92 55.54 9.11 9.79 1.16 21.29 3.29 19.99 13.97-.41 3.49-3.42 5.55-7.74 6.71-19.86 5.27-39.58 1.51-57.79-8.01-13.84-7.19-11.37-7.95-25.68-4.32l-35.14 41.44c29.52 26.7 81.98 31.29 116.42 24.31 34.45-6.99 66.98-35.2 63.55-73.07-1.16-12.67-5.34-25.14-15.95-33.01-11.37-8.49-24.66-12.94-38.76-15l-46.64-6.71c-4.24-.62-7.26-3.7-7.39-7.33-.14-3.29 1.64-6.23 5.13-8.08 18.77-10 47.25 3.01 64.58 10.96 11.5 5.2 24.11-23.83 32.53-29.72 21.57 47.59 39.24 94.09 56.29 142.44-4.86 11.5-7.46 23.56-14.38 33.62-3.9 5.69-14.31.89-19.45 3.63-3.56 1.92-5.34 6.65-11.09 4.8l-6.37 51.29c15.82.07 31.29 1.03 45.67-4.93s27.81-17.94 34.31-32.53c16.92-37.73 30.68-74.92 44.72-113.82l39.38-109.22c1.1-2.95-2.19-4.94-4.66-5.28M127.21 275.01c.62-3.22 4.31-3.01 3.49.96l-18.76 18.49c3.76-7.53 10.27-12.39 15.27-19.45m-31.09 31.16c.48-1.09 2.4-1.37 3.49-.34 13.15 11.85 29.04 16.37 47.53 21.98-6.44 3.36-53.62-15.34-51.02-21.64m7.87-3.29a22 22 0 0 0 2.26-3.08c1.1-1.78 1.65.55 1.78 2.26 7.26 6.65 16.37 10.69 25.62 14.52 15.94 5.72 31.82 7.45 50.12 9.63-20.2 2.61-65.26-7.17-79.78-23.33m121.83-40.19c1.58 3.76 1.65 8.76-2.87 11.57 1.16-6.92.75-13.29-5-17.94 4.38-.35 6.85 3.9 7.87 6.37M122.96 150.17c-19.58 16.37-15.54 60.13-7.94 72.32l8.73 13.91c-20.6-11.85-27.86-73.92-.79-86.23m1.78 12.4c-13.04 18.71-8.38 58.32 8.83 73.27-18.57-7.85-22.17-40.25-19.71-57.8 3.56-25.61 29.17-38.14 52.32-36.22-15.82 2.12-31.78 6.91-41.44 20.75m147.31 238.79c3.56-14.65 1.78-28.97 7.39-43.96 3.43 14.1-2.74 26.36-2.53 41.02l25.82.96c-10.07 2.32-19.59 2.94-30.68 1.98m-15.34-256.74c26.5 50.2 47.94 102.86 64.92 159.7z" style="fill:#0556f9"/></g></svg>